<svg version="1" xmlns="http://www.w3.org/2000/svg" width="640" height="640" viewBox="0 0 480.000000 480.000000"><path d="M212.9 42.9c-3.6 3.6-3.6 5-.5 25.2 2.3 14.7 5.5 40.8 7.4 60.6 1 10 2.9 13.8 9.3 18.4 3.4 2.4 10.7 3.5 16.2 2.5 4.2-.8 10.9-6.4 13-10.8.8-1.9 2-9 2.6-16.3 2.1-25.1 10.3-45 24-57.8l5-4.7-5.7.1c-3.1 0-7.8.4-10.3.8l-4.5.7.4-7.7c.4-7.6.4-7.9-2.6-10.9l-3-3h-48.4l-2.9 2.9zM60.3 74.7c.6 15.9 2.6 26.4 7.3 37.5 8.3 19.9 25.7 35.8 46.9 42.9 9 3 20.7 5.4 22.8 4.6.7-.3 3.4-4 5.9-8.3 5.5-9.5 14.2-21.8 21-29.6l4.9-5.7-1.6-6.8c-2.2-8.9-9.3-23.5-14.6-29.8-4.8-5.8-12.7-12-18.5-14.6-9.7-4.4-14.5-4.9-45.2-4.9H59.7l.6 14.7zm47.2 6.3c9.1 1.3 17 5.3 21.1 10.7 6 7.8 9.7 21.4 10.8 39.4l.5 8.7-4.2-.5c-30.2-3.6-49.9-23-54.5-53.6l-.9-5.7h10.1c5.6 0 13.3.5 17.1 1zM355 61.6c-11.2 3-20.6 9.1-28.3 18.4-4.9 5.8-12.1 20.7-14.1 29.2l-1.7 6.7 6.2 7.3c5.6 6.7 19 26.2 23.1 33.7 2 3.6 2.9 3.7 13.5 1.5 27.2-5.6 48.8-22.6 58.7-46.2 4.6-10.9 6.7-21.6 7.3-37.5l.6-14.7-29.9.1c-22.9 0-31.2.4-35.4 1.5zm43.8 24.1c-4.7 30.9-24.2 50.1-54.5 53.6l-4.2.5.5-8.7c1.6-25.8 7.7-40.4 19.4-46.4 6.5-3.3 13.6-4.4 28.6-4.6l11.1-.1-.9 5.7zM118.7 202.2c-1.9 4.5-9.7 28.3-9.7 29.6 0 3.1 29 8.5 42.9 8l8.3-.3-6.6-4.8c-11.1-8.1-26-24-32.2-34.3-1-1.7-1.3-1.5-2.7 1.8zM354.5 206.2c-6.2 8.8-19.1 21.9-27.9 28.4l-6.8 4.9 8.3.3c14.9.5 42.9-4.9 42.9-8.3 0-2.3-8.9-29-10.2-30.7-1.2-1.5-1.9-.9-6.3 5.4zM187.2 222c-13 7.9-7.4 28 7.8 28 8.5 0 15-6.5 15-15s-6.5-15-15-15c-2.7 0-5.8.8-7.8 2zM277.2 222c-13 7.9-7.4 28 7.8 28s20.8-20.1 7.8-28c-2-1.2-5.1-2-7.8-2s-5.8.8-7.8 2zM103.6 258.2c-1.3 5.7-2.7 17.7-3.3 27.2l-.6 10.4 7.8 1.7c10.4 2.3 30.5 1.6 42-1.5 9.6-2.6 20.3-7.5 26.5-12.1 4.4-3.2 4.5-3.3 2-4-1.4-.4-4.7-.7-7.3-.8-6.5-.1-22.5-3.5-32.3-6.7-8.5-2.8-23.3-9.6-30.1-13.9l-4.2-2.6-.5 2.3zM367 261.1c-16 9.3-37.5 16.1-56.2 17.8-5.5.5-10.2 1.2-10.5 1.5-.7.6 7.2 6.3 12.7 9.1 16.9 8.5 42.6 11.9 60.1 7.9l6.9-1.6v-5.6c0-6.4-2.9-31.1-3.9-32.8-.4-.7-3.6.6-9.1 3.7zM208.5 301.6c-34.3 4.8-69.8 18.8-96.3 38.3-7.3 5.3-7.3 5.2-2.3 18.3 6.9 17.9 15.3 31.4 26.7 43.1 24 24.5 55.4 37 96.4 38.4 45.2 1.5 80.6-10.1 106.9-35.2 10.6-10.1 19-21.3 24.6-32.9 4.3-8.7 9.5-22.6 9.5-25.2 0-1.8-20-14.5-33.6-21.3-21.6-10.9-43.6-18.4-66.4-22.6-13.3-2.5-50.4-3-65.5-.9zm79.6 72.1c-5.1 10.1-17.2 19.7-29.6 23.5-9.9 3.1-27.1 3.1-37 0-12.4-3.8-24.5-13.4-29.6-23.5L190 370h100l-1.9 3.7z"/></svg>